<?xml version="1.0" standalone="no"?>
<!DOCTYPE svg PUBLIC "-//W3C//DTD SVG 20010904//EN"
 "http://www.w3.org/TR/2001/REC-SVG-20010904/DTD/svg10.dtd">
<svg version="1.0" xmlns="http://www.w3.org/2000/svg"
 width="300.000000pt" height="300.000000pt" viewBox="0 0 300.000000 300.000000"
 preserveAspectRatio="xMidYMid meet">
<metadata>
Created by potrace 1.14, written by Peter Selinger 2001-2017
</metadata>
<g transform="translate(0.000000,300.000000) scale(0.100000,-0.100000)"
fill="#000000" stroke="none">
<path d="M2835 2660 c-15 -16 -48 -38 -72 -50 -24 -11 -46 -27 -49 -35 -4 -8
-14 -15 -23 -15 -10 0 -23 -11 -29 -25 -6 -14 -16 -25 -21 -25 -6 0 -23 -11
-38 -25 -15 -14 -34 -30 -41 -36 -14 -12 -46 14 -186 153 -81 79 -106 93 -106
59 0 -20 -25 -35 -41 -25 -5 3 -9 1 -9 -5 0 -6 -12 -14 -27 -17 -44 -11 -54
-33 -29 -61 36 -41 172 -177 205 -205 17 -15 31 -32 31 -38 0 -13 4 -14 -65
12 -58 21 -74 21 -610 23 -543 2 -551 3 -610 25 -75 28 -202 37 -276 20 -89
-21 -168 -67 -239 -139 -157 -159 -190 -357 -96 -581 4 -10 -4 -21 -26 -33
-115 -63 -239 -235 -273 -378 -17 -76 -21 -581 -5 -654 29 -131 135 -262 246
-306 l59 -23 895 0 895 0 57 23 c72 28 154 102 192 171 56 103 56 97 56 845
-1 736 -1 739 -50 822 -11 18 -15 33 -9 33 10 0 122 -108 187 -182 34 -38 82
-52 97 -28 4 6 11 8 16 4 6 -3 21 -3 35 0 20 5 24 13 24 41 0 26 4 35 17 35
15 0 15 2 2 13 -8 6 -27 28 -41 47 -14 19 -66 76 -115 125 l-88 90 36 33 c20
17 44 32 53 32 10 0 14 4 11 10 -3 5 35 49 85 97 l90 87 0 53 c0 29 -3 53 -7
54 -5 0 -24 2 -44 4 -30 3 -41 -1 -64 -25z"/>
</g>
</svg>
